<svg width="65" height="65" viewBox="0 0 65 65" fill="none" xmlns="http://www.w3.org/2000/svg">
<g clip-path="url(#clip0_2739_14550)">
<path d="M32.2072 64.3615C49.9633 64.3615 64.3575 49.9673 64.3575 32.2112C64.3575 14.455 49.9633 0.0608521 32.2072 0.0608521C14.4511 0.0608521 0.0568848 14.455 0.0568848 32.2112C0.0568848 49.9673 14.4511 64.3615 32.2072 64.3615Z" fill="#FF62BD"/>
<path d="M40.4236 53.9509L32.2074 50.0214L23.9912 53.9509V37.3144H40.4236V53.9509Z" fill="#FEFEFE"/>
<path d="M32.2074 42.3155C40.5499 42.3155 47.3129 35.5525 47.3129 27.21C47.3129 18.8674 40.5499 12.1044 32.2074 12.1044C23.8648 12.1044 17.1018 18.8674 17.1018 27.21C17.1018 35.5525 23.8648 42.3155 32.2074 42.3155Z" fill="#FEFEFE"/>
<path d="M32.2074 38.9474C38.6898 38.9474 43.9448 33.6924 43.9448 27.21C43.9448 20.7276 38.6898 15.4726 32.2074 15.4726C25.725 15.4726 20.47 20.7276 20.47 27.21C20.47 33.6924 25.725 38.9474 32.2074 38.9474Z" fill="#FF62BD"/>
</g>
<defs>
<clipPath id="clip0_2739_14550">
<rect width="64.3007" height="64.3007" fill="white" transform="translate(0.0568848 0.0608521)"/>
</clipPath>
</defs>
</svg>
