<svg width="65" height="65" viewBox="0 0 65 65" fill="none" xmlns="http://www.w3.org/2000/svg">
<g clip-path="url(#clip0_2317_3006)">
<path d="M31.7966 50.1025C42.6905 50.1025 51.5217 41.2713 51.5217 30.3774C51.5217 19.4836 42.6905 10.6523 31.7966 10.6523C20.9028 10.6523 12.0715 19.4836 12.0715 30.3774C12.0715 41.2713 20.9028 50.1025 31.7966 50.1025Z" fill="#FFCEEB"/>
<path d="M33.3783 28.8924V23.2749C35.6206 23.6682 35.9578 24.9112 36.0084 25.6421C36.0214 25.8293 36.1759 25.9742 36.3638 25.9742H38.8129C39.0185 25.9742 39.1804 25.8001 39.1699 25.5948C39.011 22.5137 36.899 20.5312 33.3784 20.086V18.1967C33.3784 17.9997 33.2188 17.8402 33.0219 17.8402H30.573C30.376 17.8402 30.2165 17.9998 30.2165 18.1967V20.086C26.5533 20.5492 24.4153 22.6764 24.4153 25.9742C24.4153 29.2719 26.5533 31.3991 30.2165 31.8623V37.48C27.9742 37.0868 27.637 35.8438 27.5864 35.1129C27.5734 34.9257 27.4189 34.7808 27.231 34.7808H24.7819C24.5763 34.7808 24.4144 34.9549 24.4249 35.1602C24.5838 38.2413 26.6958 40.2238 30.2164 40.669V42.5583C30.2164 42.7553 30.376 42.9148 30.5729 42.9148H33.0218C33.2188 42.9148 33.3783 42.7552 33.3783 42.5583V40.6689C37.0415 40.2057 39.1795 38.0784 39.1795 34.7807C39.1795 31.4829 37.0415 29.3557 33.3783 28.8924ZM30.2163 28.6729C27.5777 28.2103 27.5772 26.5709 27.5772 25.9739C27.5772 25.3771 27.5778 23.7374 30.2163 23.2748V28.6729ZM33.3783 37.4797V32.0816C36.0169 32.5442 36.0174 34.1837 36.0174 34.7807C36.0174 35.3776 36.017 37.0169 33.3783 37.4797Z" fill="#FEFEFE"/>
<path d="M62.9186 42.739C62.9175 42.2414 62.7187 41.7647 62.3662 41.4134C62.0135 41.0624 61.5302 40.87 61.0382 40.8669L53.6625 40.883C52.6262 40.8853 51.7881 41.7272 51.7904 42.7633C51.7926 43.7983 52.6323 44.6357 53.6666 44.6357C53.6679 44.6357 53.6695 44.6357 53.6707 44.6357L56.884 44.6285L45.1606 55.1186L41.81 49.5191C43.7045 48.5297 45.482 47.2407 47.0714 45.6514C55.4935 37.229 55.4935 23.5253 47.0714 15.1032C38.6493 6.68111 24.9456 6.68111 16.5232 15.1032C15.7906 15.8358 15.7903 17.024 16.5232 17.7568C17.2561 18.4893 18.4441 18.4895 19.1766 17.7568C26.1359 10.7975 37.4592 10.7978 44.418 17.7568C51.377 24.7158 51.377 36.039 44.418 42.998C43.0511 44.3649 41.5145 45.4589 39.8772 46.289L39.6235 45.865C39.3265 45.3688 38.8177 45.0374 38.2438 44.9663C37.6698 44.8958 37.0955 45.0928 36.6867 45.5018L34.1263 48.0621C28.8147 48.7554 23.2487 47.0704 19.1767 42.9983C18.4441 42.2658 17.2559 42.2658 16.5233 42.9983C15.7907 43.7309 15.7907 44.919 16.5233 45.6519C20.3474 49.4759 25.2604 51.5634 30.2737 51.9149L26.0063 56.1823C25.9168 56.1459 25.8247 56.114 25.7279 56.0913C13.7492 53.2745 5.3836 42.7009 5.3836 30.3771C5.3836 23.3216 8.13121 16.6887 13.12 11.7C18.1087 6.71123 24.7418 3.96361 31.7973 3.96361C46.3616 3.96361 58.211 15.8127 58.211 30.3771C58.211 31.4132 59.051 32.2533 60.0872 32.2533C61.1235 32.2533 61.9635 31.4132 61.9635 30.3771C61.9635 13.7436 48.431 0.211121 31.7973 0.211121C23.7396 0.211121 16.1641 3.34899 10.4665 9.0466C4.76885 14.7442 1.6311 22.3196 1.6311 30.3771C1.6311 37.2165 3.9836 43.9155 8.25497 49.2402C12.0461 53.966 17.2138 57.4619 22.9616 59.2261L21.1797 61.008C20.4471 61.7406 20.4471 62.9287 21.1797 63.6616C21.5461 64.0279 22.0263 64.2111 22.5064 64.2111C22.9866 64.2111 23.4669 64.0279 23.8332 63.6616L35.9208 51.574C36.7244 51.4189 37.5205 51.2168 38.3053 50.9703L43.1079 58.996C43.3954 59.4765 43.8824 59.8035 44.4361 59.8876C44.9894 59.9716 45.5518 59.8044 45.9693 59.4308L59.1771 47.6124L59.1826 50.123C59.1849 51.158 60.0245 51.9954 61.0589 51.9954C61.0601 51.9954 61.0617 51.9954 61.063 51.9954C62.0992 51.9931 62.9374 51.1513 62.9351 50.1151L62.9186 42.739Z" fill="#FF62BD"/>
</g>
<defs>
<clipPath id="clip0_2317_3006">
<rect width="64" height="64" fill="white" transform="translate(0.282959 0.211121)"/>
</clipPath>
</defs>
</svg>
