<svg width="65" height="65" viewBox="0 0 65 65" fill="none" xmlns="http://www.w3.org/2000/svg">
<g clip-path="url(#clip0_2317_3025)">
<path d="M32.0657 64.2111C49.7388 64.2111 64.0657 49.8842 64.0657 32.2111C64.0657 14.538 49.7388 0.211121 32.0657 0.211121C14.3926 0.211121 0.0656738 14.538 0.0656738 32.2111C0.0656738 49.8842 14.3926 64.2111 32.0657 64.2111Z" fill="#FF62BD"/>
<path fill-rule="evenodd" clip-rule="evenodd" d="M26.7022 20.9808C27.2975 21.2902 27.9731 21.5503 28.7055 21.7548C28.8684 21.3019 29.0524 20.8718 29.2592 20.4734C29.6389 19.7415 30.0737 19.1433 30.5477 18.6904C29.0653 19.1035 27.7446 19.9062 26.7022 20.9808ZM26.1995 42.4185C26.1995 41.174 26.6436 40.032 27.4622 39.1408C26.6811 38.8249 25.7659 38.665 24.7334 38.665C21.5055 38.665 19.4202 40.2605 19.4202 42.7302V45.2146H21.4622V43.2054C21.4622 43.0109 21.6192 42.8538 21.8137 42.8538C22.0077 42.8538 22.1653 43.0115 22.1653 43.2054V45.2146H26.2V42.4185H26.1995ZM40.9428 38.665C39.9104 38.665 38.9952 38.8255 38.2141 39.1408C39.0327 40.0314 39.4768 41.1734 39.4768 42.4185V45.2146H43.5122V43.2054C43.5122 43.0109 43.6698 42.8538 43.8637 42.8538C44.0577 42.8538 44.2153 43.0115 44.2153 43.2054V45.2146H46.2561V42.7302C46.2561 40.2611 44.1702 38.665 40.9428 38.665ZM38.2563 35.1945C38.2563 36.6757 39.4616 37.881 40.9428 37.881C42.4241 37.881 43.6293 36.6757 43.6293 35.1945C43.6293 33.7132 42.4241 32.5079 40.9428 32.5079C39.4616 32.5079 38.2563 33.7132 38.2563 35.1945ZM32.8381 37.8681C36.444 37.8681 38.7737 39.654 38.7737 42.4185V45.2146H36.4311V42.9458C36.4311 42.7513 36.2735 42.5943 36.0795 42.5943C35.8856 42.5943 35.728 42.7519 35.728 42.9458V45.2146H29.9483V42.9458C29.9483 42.7513 29.7907 42.5943 29.5967 42.5943C29.4028 42.5943 29.2452 42.7519 29.2452 42.9458V45.2146H26.9026V42.4185C26.9026 39.654 29.2323 37.8681 32.8381 37.8681ZM27.42 35.1945C27.42 33.7132 26.2147 32.5079 24.7334 32.5079C23.2522 32.5079 22.0469 33.7132 22.0469 35.1945C22.0469 36.6757 23.2522 37.881 24.7334 37.881C26.2147 37.881 27.42 36.6757 27.42 35.1945ZM36.1346 32.3269C36.1881 32.1975 36.2389 32.067 36.287 31.9355C36.137 31.9021 35.984 31.8716 35.8305 31.8423C35.9442 31.9947 36.0456 32.157 36.1346 32.3269ZM36.9719 32.1083C37.5684 32.2753 38.1262 32.4787 38.6348 32.716C38.2821 33.0441 38.0029 33.4433 37.8157 33.8872C37.4049 34.1822 36.9686 34.4399 36.512 34.6572C36.5442 34.4615 36.5618 34.2599 36.5618 34.0548C36.5618 33.7853 36.5319 33.5228 36.4774 33.2697C36.6602 32.9046 36.8249 32.5167 36.9719 32.1083ZM32.8381 31.0343C34.5034 31.0343 35.8586 32.389 35.8586 34.0548C35.8586 35.7201 34.5034 37.0753 32.8381 37.0753C31.1729 37.0753 29.8176 35.7201 29.8176 34.0548C29.8176 32.3896 31.1735 31.0343 32.8381 31.0343ZM29.3899 31.9355C29.438 32.067 29.4888 32.1975 29.5422 32.3269C29.6313 32.1576 29.7333 31.9953 29.8463 31.8423C29.6922 31.871 29.5399 31.9015 29.3899 31.9355ZM28.7049 32.1083C28.852 32.5167 29.0167 32.9046 29.1995 33.2697C29.145 33.5228 29.1151 33.7853 29.1151 34.0548C29.1151 34.2599 29.1327 34.4609 29.1649 34.6572C28.709 34.4404 28.2725 34.1826 27.8606 33.8872C27.6731 33.4402 27.3918 33.0417 27.042 32.716C27.55 32.4787 28.1079 32.2753 28.7049 32.1083ZM28.4858 31.4392C28.112 30.1777 27.8999 28.7609 27.8706 27.2831H24.2922C24.3614 29.0152 24.9415 30.6523 25.9809 32.0433C26.1268 32.1013 26.268 32.1693 26.4034 32.246C27.0268 31.9249 27.7276 31.6537 28.4858 31.4392ZM32.4866 30.3482V27.2831H28.5737C28.6024 28.7046 28.8075 30.0622 29.1667 31.2652C29.6659 31.1509 30.1856 31.0601 30.7211 30.9939C31.2443 30.6303 31.8523 30.4079 32.4866 30.3482ZM36.5096 31.2652C36.8688 30.0628 37.0739 28.7046 37.1026 27.2831H33.1897V30.3482C33.8239 30.4079 34.432 30.6303 34.9551 30.9939C35.4907 31.0601 36.0104 31.1509 36.5096 31.2652ZM41.384 27.2837H37.8057C37.7764 28.7615 37.5643 30.1783 37.1905 31.4398C37.9487 31.6542 38.6495 31.9249 39.2735 32.2466C39.4094 32.1692 39.5505 32.1015 39.6959 32.0439C40.7354 30.6529 41.3155 29.0152 41.384 27.2837ZM39.4569 21.521C38.7889 21.8849 38.0231 22.1878 37.1899 22.4234C37.5643 23.6855 37.7764 25.1029 37.8057 26.5812H41.3834C41.3061 24.6658 40.5959 22.9115 39.4569 21.521ZM36.4176 20.4734C36.0379 19.7415 35.6032 19.1433 35.1292 18.6904C36.611 19.1029 37.9323 19.9056 38.9752 20.9802C38.3793 21.2896 37.7038 21.5497 36.9713 21.7542C36.8084 21.3019 36.6245 20.8724 36.4176 20.4734ZM36.509 22.5968C35.4678 22.8347 34.3434 22.9724 33.1897 22.9953V26.5806H37.1026C37.0739 25.1585 36.8688 23.7997 36.509 22.5968ZM33.1897 18.4091V22.2921C34.2678 22.2699 35.3161 22.1445 36.2864 21.9271C36.1399 21.5281 35.9758 21.1495 35.793 20.7974C35.0711 19.4052 34.1571 18.572 33.1897 18.4091ZM29.3899 21.9271C29.5364 21.5281 29.7004 21.1495 29.8833 20.7974C30.6051 19.4052 31.5192 18.5726 32.4866 18.4091V22.2921C31.4084 22.2699 30.3602 22.1445 29.3899 21.9271ZM29.1672 22.5968C28.8075 23.7997 28.6024 25.1585 28.5737 26.5806H32.4866V22.9953C31.3329 22.9718 30.2084 22.8347 29.1672 22.5968ZM28.4864 22.4228C28.112 23.6843 27.8999 25.1023 27.8706 26.5806H24.2928C24.3708 24.6658 25.0803 22.9115 26.2194 21.5204C26.8874 21.8843 27.6532 22.1878 28.4864 22.4228Z" fill="#FEFEFE"/>
</g>
<defs>
<clipPath id="clip0_2317_3025">
<rect width="64" height="64" fill="white" transform="translate(0.0656738 0.211121)"/>
</clipPath>
</defs>
</svg>
