<svg width="65" height="65" viewBox="0 0 65 65" fill="none" xmlns="http://www.w3.org/2000/svg">
<g clip-path="url(#clip0_2317_2989)">
<path d="M32.5 64.2111C50.1731 64.2111 64.5 49.8842 64.5 32.2111C64.5 14.538 50.1731 0.211121 32.5 0.211121C14.8269 0.211121 0.5 14.538 0.5 32.2111C0.5 49.8842 14.8269 64.2111 32.5 64.2111Z" fill="#FF62BD"/>
<path d="M32.6774 64.209C48.3678 64.1236 61.3843 52.7473 64.0144 37.791L46.7223 20.4988L36.765 31.807L18.4573 49.9888L32.6774 64.209Z" fill="#FFEBCC"/>
<path d="M40.6566 14.4333H18.4573V49.9888H46.7223V20.4988L40.6566 14.4333Z" fill="white"/>
<path d="M46.7222 20.4988L40.6565 14.4333H30.1655V49.9888H46.7222V20.4988Z" fill="#E6F3FF"/>
<path d="M40.6567 20.4991L46.7224 20.4988L40.6567 14.4333V20.4991Z" fill="#CFDBE6"/>
<path d="M30.1296 31.8415C32.746 31.8415 34.8671 29.7205 34.8671 27.104C34.8671 24.4876 32.746 22.3665 30.1296 22.3665C27.5131 22.3665 25.3921 24.4876 25.3921 27.104C25.3921 29.7205 27.5131 31.8415 30.1296 31.8415Z" fill="#26BEBE"/>
<path d="M34.867 27.1036C34.867 24.4993 32.7654 22.3866 30.1655 22.367V31.8401C32.7654 31.8206 34.867 29.7078 34.867 27.1036Z" fill="#21ADA9"/>
<path d="M20.3584 42.0561C20.3584 36.6596 24.733 32.285 30.1295 32.285C35.526 32.285 39.9006 36.6596 39.9006 42.0561H20.3584Z" fill="#324A5E"/>
<path d="M30.1655 32.2861V42.0561H39.9007C39.9007 36.672 35.5452 32.3055 30.1655 32.2861Z" fill="#2B3B4E"/>
<path d="M31.0181 45.7184L29.6467 44.347L37.5096 36.4839L42.2142 41.1884L51.1072 30.0723L52.6214 31.2839L42.375 44.0921L37.5096 39.2268L31.0181 45.7184Z" fill="#C1321F"/>
<path d="M51.6157 34.4604L51.1698 31.645L48.4124 31.9325L48.2112 30.0036L52.7978 29.5255L53.5313 34.157L51.6157 34.4604Z" fill="#C1321F"/>
</g>
<defs>
<clipPath id="clip0_2317_2989">
<rect width="64" height="64" fill="white" transform="translate(0.5 0.211121)"/>
</clipPath>
</defs>
</svg>
